<svg width="32" height="32" viewBox="0 0 32 32" fill="none" xmlns="http://www.w3.org/2000/svg">
  <circle cx="16" cy="16" r="16" fill="#F3BA2F"/>
  <path d="M12.5 14.5L16 11L19.5 14.5L21.5 12.5L16 7L10.5 12.5L12.5 14.5Z" fill="white"/>
  <path d="M7 16L9 14L11 16L9 18L7 16Z" fill="white"/>
  <path d="M12.5 17.5L16 21L19.5 17.5L21.5 19.5L16 25L10.5 19.5L12.5 17.5Z" fill="white"/>
  <path d="M21 16L23 14L25 16L23 18L21 16Z" fill="white"/>
  <path d="M18 16C18 17.1 17.1 18 16 18C14.9 18 14 17.1 14 16C14 14.9 14.9 14 16 14C17.1 14 18 14.9 18 16Z" fill="white"/>
</svg>
