<svg width="32" height="32" viewBox="0 0 32 32" fill="none" xmlns="http://www.w3.org/2000/svg">
  <circle cx="16" cy="16" r="16" fill="#F7931A"/>
  <path d="M20.5 12.5C20.8 11.2 20.2 10.1 18.9 9.8L18.1 7.8L16.7 8.2L17.5 10.2C17.2 10.3 16.9 10.4 16.6 10.5L15.8 8.5L14.4 8.9L15.2 10.9C14.9 10.9 14.7 11 14.5 11.1L12.5 10.5L12.1 11.9L14.1 12.5C13.8 13.1 13.7 13.8 13.8 14.5L12 15.1L12.4 16.5L14.2 15.9C14.5 16.3 14.9 16.6 15.4 16.8L14.6 18.8L16 19.2L16.8 17.2C17.1 17.2 17.4 17.1 17.7 17L18.5 19L19.9 18.6L19.1 16.6C20.3 16.3 20.9 15.5 20.6 14.2L20.5 12.5ZM18.1 15.4C18.2 16.1 17.8 16.4 17.1 16.6L17.9 14.6C18.1 15 18 15.2 18.1 15.4ZM18.4 12.2C18.3 11.5 17.9 11.2 17.2 11L16.4 13C17.1 12.8 18.5 12.9 18.4 12.2Z" fill="white"/>
</svg>
