<svg width="32" height="32" viewBox="0 0 32 32" fill="none" xmlns="http://www.w3.org/2000/svg">
  <circle cx="16" cy="16" r="16" fill="#9945FF"/>
  <path d="M8.5 10.5C8.2 10.2 8.2 9.8 8.5 9.5L10.5 7.5C10.8 7.2 11.2 7.2 11.5 7.5L20.5 16.5C20.8 16.8 20.8 17.2 20.5 17.5L18.5 19.5C18.2 19.8 17.8 19.8 17.5 19.5L8.5 10.5Z" fill="white"/>
  <path d="M8.5 21.5C8.2 21.2 8.2 20.8 8.5 20.5L10.5 18.5C10.8 18.2 11.2 18.2 11.5 18.5L20.5 27.5C20.8 27.8 20.8 28.2 20.5 28.5L18.5 30.5C18.2 30.8 17.8 30.8 17.5 30.5L8.5 21.5Z" fill="white"/>
  <path d="M23.5 16C23.5 20.1 20.1 23.5 16 23.5C11.9 23.5 8.5 20.1 8.5 16C8.5 11.9 11.9 8.5 16 8.5C20.1 8.5 23.5 11.9 23.5 16Z" fill="white"/>
</svg>

